<?xml version="1.0" standalone="no"?>
<!DOCTYPE svg PUBLIC "-//W3C//DTD SVG 20010904//EN"
 "http://www.w3.org/TR/2001/REC-SVG-20010904/DTD/svg10.dtd">
<svg version="1.0" xmlns="http://www.w3.org/2000/svg"
 width="16.000000pt" height="16.000000pt" viewBox="0 0 16.000000 16.000000"
 preserveAspectRatio="xMidYMid meet">
<metadata>
Created by potrace 1.11, written by Peter Selinger 2001-2013
</metadata>
<g transform="translate(0.000000,16.000000) scale(0.003125,-0.003125)"
fill="#000000" stroke="none">
<path d="M1400 3753 l0 -288 717 2 c462 2 741 -1 783 -8 196 -31 302 -206 294
-485 -6 -237 -93 -378 -279 -449 -43 -17 -80 -20 -275 -22 -124 -1 -241 -4
-260 -7 -76 -10 -165 -64 -275 -167 -89 -83 -130 -118 -133 -114 -2 2 -4 151
-5 332 l-2 328 -282 2 -283 1 0 -879 c0 -717 2 -879 13 -872 36 22 517 391
527 404 3 3 34 30 70 60 59 49 115 97 144 125 39 37 193 157 219 171 27 14 71
17 262 19 129 1 252 7 280 13 65 15 142 39 182 57 17 8 33 14 36 14 15 0 161
89 217 133 260 202 393 493 394 862 1 536 -209 879 -619 1006 -145 44 -182 46
-972 48 l-753 2 0 -288z"/>
</g>
</svg>
